<svg width="512" height="512" viewBox="0 0 24 24" fill="none" xmlns="http://www.w3.org/2000/svg">
  <path d="M3 3H9V9H3V3ZM5 5V7H7V5H5ZM15 3H21V9H15V3ZM17 5V7H19V5H17ZM3 15H9V21H3V15ZM5 17V19H7V17H5ZM15 15H17V17H15V15ZM19 15H21V17H19V15ZM15 19H17V21H15V19ZM19 19H21V21H19V19ZM17 17H19V19H17V17Z" fill="#0ea5e9"/>
  <rect x="11" y="3" width="2" height="2" fill="#0ea5e9" opacity="0.3"/>
  <rect x="11" y="7" width="2" height="2" fill="#0ea5e9" opacity="0.3"/>
  <rect x="3" y="11" width="2" height="2" fill="#0ea5e9" opacity="0.3"/>
  <rect x="7" y="11" width="2" height="2" fill="#0ea5e9" opacity="0.3"/>
  <rect x="11" y="11" width="2" height="2" fill="#0ea5e9" opacity="0.3"/>
  <rect x="15" y="11" width="2" height="2" fill="#0ea5e9" opacity="0.3"/>
  <rect x="19" y="11" width="2" height="2" fill="#0ea5e9" opacity="0.3"/>
  <rect x="11" y="15" width="2" height="2" fill="#0ea5e9" opacity="0.3"/>
  <rect x="11" y="19" width="2" height="2" fill="#0ea5e9" opacity="0.3"/>
</svg>
